<svg width="208" height="208" viewBox="0 0 208 208" fill="none" xmlns="http://www.w3.org/2000/svg">
<g filter="url(#filter0_d_375_348)">
<rect x="26" y="26" width="148" height="148" rx="15" fill="#00BD97"/>
</g>
<path fill-rule="evenodd" clip-rule="evenodd" d="M49.5 146.615C49.5 145.585 49.9093 144.597 50.6378 143.869C51.3663 143.14 52.3544 142.731 53.3846 142.731H146.615C147.646 142.731 148.634 143.14 149.362 143.869C150.091 144.597 150.5 145.585 150.5 146.615C150.5 147.646 150.091 148.634 149.362 149.362C148.634 150.091 147.646 150.5 146.615 150.5H53.3846C52.3544 150.5 51.3663 150.091 50.6378 149.362C49.9093 148.634 49.5 147.646 49.5 146.615Z" fill="url(#paint0_linear_375_348)"/>
<path d="M76.6921 96.1155H61.1537C59.0082 96.1155 57.269 97.8547 57.269 100V146.615C57.269 148.761 59.0082 150.5 61.1537 150.5H76.6921C78.8375 150.5 80.5767 148.761 80.5767 146.615V100C80.5767 97.8547 78.8375 96.1155 76.6921 96.1155Z" fill="url(#paint1_linear_375_348)"/>
<path d="M107.769 49.5H92.2308C90.0854 49.5 88.3462 51.2392 88.3462 53.3846V146.615C88.3462 148.761 90.0854 150.5 92.2308 150.5H107.769C109.915 150.5 111.654 148.761 111.654 146.615V53.3846C111.654 51.2392 109.915 49.5 107.769 49.5Z" fill="url(#paint2_linear_375_348)"/>
<path d="M138.846 72.8076H123.307C121.162 72.8076 119.423 74.5468 119.423 76.6922V146.615C119.423 148.761 121.162 150.5 123.307 150.5H138.846C140.991 150.5 142.731 148.761 142.731 146.615V76.6922C142.731 74.5468 140.991 72.8076 138.846 72.8076Z" fill="url(#paint3_linear_375_348)"/>
<defs>
<filter id="filter0_d_375_348" x="0.799999" y="0.799999" width="206.4" height="206.4" filterUnits="userSpaceOnUse" color-interpolation-filters="sRGB">
<feFlood flood-opacity="0" result="BackgroundImageFix"/>
<feColorMatrix in="SourceAlpha" type="matrix" values="0 0 0 0 0 0 0 0 0 0 0 0 0 0 0 0 0 0 127 0" result="hardAlpha"/>
<feOffset dx="4" dy="4"/>
<feGaussianBlur stdDeviation="14.6"/>
<feComposite in2="hardAlpha" operator="out"/>
<feColorMatrix type="matrix" values="0 0 0 0 0 0 0 0 0 0 0 0 0 0 0 0 0 0 0.25 0"/>
<feBlend mode="normal" in2="BackgroundImageFix" result="effect1_dropShadow_375_348"/>
<feBlend mode="normal" in="SourceGraphic" in2="effect1_dropShadow_375_348" result="shape"/>
</filter>
<linearGradient id="paint0_linear_375_348" x1="100" y1="142.731" x2="100" y2="150.5" gradientUnits="userSpaceOnUse">
<stop stop-color="#BBFF00"/>
<stop offset="0.0001" stop-color="#709900"/>
</linearGradient>
<linearGradient id="paint1_linear_375_348" x1="68.9229" y1="96.1155" x2="68.9229" y2="150.5" gradientUnits="userSpaceOnUse">
<stop stop-color="#BBFF00"/>
<stop offset="1" stop-color="#709900"/>
</linearGradient>
<linearGradient id="paint2_linear_375_348" x1="100" y1="49.5" x2="100" y2="150.5" gradientUnits="userSpaceOnUse">
<stop stop-color="#BBFF00"/>
<stop offset="1" stop-color="#709900"/>
</linearGradient>
<linearGradient id="paint3_linear_375_348" x1="131.077" y1="72.8076" x2="131.077" y2="150.5" gradientUnits="userSpaceOnUse">
<stop stop-color="#BBFF00"/>
<stop offset="1" stop-color="#709900"/>
</linearGradient>
</defs>
</svg>
