<svg width="111" height="110" viewBox="0 0 111 110" fill="none" xmlns="http://www.w3.org/2000/svg">
<path d="M55.2342 0.00465393C63.8919 0.00465393 72.1332 2.00118 79.5237 5.57074C80.6845 6.09663 81.8499 6.72491 83.0061 7.35784L77.9374 11.8721L70.3388 3.99771L57.2414 15.5534L49.5319 7.2508L25.4506 28.7891L40.8696 45.7061L34.8482 50.9557L50.0637 67.8727L44.0422 73.1223L65.7973 97.1831L78.6773 85.4133L89.8739 98.0254C87.6541 99.7055 85.226 101.39 82.5899 102.861C74.2646 107.55 64.8815 110.009 55.3406 110C24.817 110 0.000340611 85.3109 0.000340611 54.9534C-0.10603 24.7961 24.7152 0 55.2342 0M45.0921 51.584L58.2959 39.8189L70.1261 52.9476L56.9223 64.7174L45.0921 51.584ZM54.4943 74.2765L67.5917 62.409L79.5237 75.5377L66.3199 87.3075L54.4943 74.2765ZM35.7037 29.2173L48.9029 17.4475L60.7285 30.5809L47.5293 42.346L35.7037 29.2173ZM59.8822 22.9112L69.7052 14.0874L78.5802 23.856L68.7571 32.7868L59.8822 22.9112ZM77.4194 63.3584L87.2378 54.5346L96.1082 64.4055L86.2851 73.2387L77.4194 63.3584ZM86.077 83.2167L95.9001 74.3882L104.766 84.1614L94.9473 93.0876L86.077 83.2167ZM90.0913 37.827L96.6354 31.9445L102.55 38.46L96.0018 44.3425L90.0913 37.827ZM81.6418 18.3923L88.1905 12.4073L94.1103 19.0252L87.5523 24.9078L81.6418 18.3923ZM98.4298 57.2664L104.979 51.3839L111 57.8994L104.35 63.7819L98.4298 57.2664ZM68.9699 42.6624L78.7929 33.8386L87.6633 43.6072L77.8402 52.4357L68.9699 42.6624Z" fill="url(#paint0_linear_375_870)"/>
<defs>
<linearGradient id="paint0_linear_375_870" x1="0" y1="55" x2="111" y2="55" gradientUnits="userSpaceOnUse">
<stop stop-color="#BBFF00"/>
<stop offset="1" stop-color="#709900"/>
</linearGradient>
</defs>
</svg>
